<svg width="53" height="53" viewBox="0 0 53 53" fill="none" xmlns="http://www.w3.org/2000/svg">
<path d="M26.5 3.3125L6.625 9.9375V29.8125C6.625 40.7903 15.5222 49.6875 26.5 49.6875C37.4778 49.6875 46.375 40.7903 46.375 29.8125V9.9375L26.5 3.3125ZM42.6484 29.8125C42.6484 38.7304 35.4179 45.9609 26.5 45.9609C17.5821 45.9609 10.3516 38.7304 10.3516 29.8125V12.7324L26.5 7.03906L42.6484 12.7324V29.8125Z" fill="white"/>
<path d="M19.5852 24.59C19.4125 24.4165 19.2072 24.2789 18.9812 24.1849C18.7551 24.091 18.5127 24.0426 18.2679 24.0426C18.0231 24.0426 17.7808 24.091 17.5547 24.1849C17.3287 24.2789 17.1234 24.4165 16.9507 24.59C16.7772 24.7627 16.6395 24.968 16.5456 25.194C16.4517 25.4201 16.4033 25.6625 16.4033 25.9073C16.4033 26.152 16.4517 26.3944 16.5456 26.6205C16.6395 26.8465 16.7772 27.0518 16.9507 27.2245L23.6482 33.922L23.7568 34.0306C23.9202 34.1943 24.1142 34.3241 24.3278 34.4127C24.5414 34.5013 24.7704 34.5469 25.0016 34.5469C25.2329 34.5469 25.4618 34.5013 25.6754 34.4127C25.889 34.3241 26.083 34.1943 26.2464 34.0306L37.8143 22.4628C37.9779 22.2994 38.1078 22.1054 38.1964 21.8918C38.285 21.6782 38.3306 21.4492 38.3306 21.218C38.3306 20.9868 38.285 20.7578 38.1964 20.5442C38.1078 20.3306 37.9779 20.1366 37.8143 19.9732L37.6693 19.8283C37.506 19.6646 37.312 19.5348 37.0984 19.4462C36.8848 19.3576 36.6558 19.312 36.4246 19.312C36.1933 19.312 35.9644 19.3576 35.7508 19.4462C35.5372 19.5348 35.3432 19.6646 35.1798 19.8283L24.999 30.0039L19.5852 24.59Z" fill="white"/>
</svg>
