<svg width="40" height="50" viewBox="0 0 40 50" fill="none" xmlns="http://www.w3.org/2000/svg">
<path d="M15.5 36.25L24.5 27.25M15.5 27.25H15.5202M24.4798 36.25H24.5M20 47.5C24.7739 47.5 29.3523 45.6036 32.7279 42.2279C36.1036 38.8523 38 34.2739 38 29.5C38 16 20 2.5 20 2.5C19.127 8.09575 18.272 11.0995 15.5 16C12.8 14.7512 12.125 13.75 11 10.9375C6.5 16 2 22.75 2 29.5C2 34.2739 3.89642 38.8523 7.27208 42.2279C10.6477 45.6036 15.2261 47.5 20 47.5Z" stroke="white" stroke-width="4" stroke-linecap="round" stroke-linejoin="round"/>
</svg>
