<svg width="43" height="49" viewBox="0 0 43 49" fill="none" xmlns="http://www.w3.org/2000/svg">
<path d="M38.925 37.7453C38.7759 39.8774 37.2187 40.6369 35.4468 39.4417C33.6749 38.2466 32.3593 35.5493 32.5084 33.4172C32.6575 31.2852 34.2148 30.5256 35.9867 31.7208C37.7586 32.9159 39.0741 35.6132 38.925 37.7453Z" fill="white" stroke="black" stroke-width="2"/>
<path d="M33.1021 30.2205C33.9568 29.8037 35.0232 30.0263 36.0564 30.7233L38.2449 29.6558C37.2117 28.9589 36.1453 28.7363 35.2906 29.1531L33.1021 30.2205Z" fill="black"/>
<path d="M39.754 38.3045C39.9416 35.6215 38.2862 32.2272 36.0564 30.7233L38.2449 29.6558C40.4747 31.1598 42.1302 34.5541 41.9425 37.2371L39.754 38.3045Z" fill="black"/>
<path d="M38.3313 40.942C39.186 40.5252 39.6671 39.5478 39.754 38.3045L41.9425 37.2371C41.8556 38.4804 41.3745 39.4578 40.5198 39.8746L38.3313 40.942Z" fill="black"/>
<path d="M29.1855 41.8102L1.97394 29.1832L1.97394 24.8003L29.2454 37.4274L29.1855 41.8102Z" fill="white"/>
<path d="M41.9693 31.4022L14.6978 18.7751L1.97394 24.8003L29.2454 37.4274L41.9693 31.4022Z" fill="white"/>
<path d="M29.1855 41.8102L1.97394 29.1832L1.97394 24.8003M29.1855 41.8102L29.2454 37.4274M29.1855 41.8102L41.9094 35.785L41.9693 31.4022M29.2454 37.4274L1.97394 24.8003M29.2454 37.4274L41.9693 31.4022M1.97394 24.8003L14.6978 18.7751L41.9693 31.4022" stroke="black" stroke-width="2" stroke-miterlimit="8.20551" stroke-linecap="square" stroke-linejoin="round"/>
<path d="M15.6097 30.2194L1.97394 23.7262V7.4932L15.6097 13.9864V30.2194Z" fill="#CE9C6A"/>
<path d="M15.5679 30.2194L29.2036 23.7262L29.2454 7.49321L22.4275 10.7398L15.6097 13.9864L15.5679 30.2194Z" fill="#CE9C6A"/>
<path d="M29.2454 7.49321L15.6097 1L8.7918 4.2466L1.97394 7.4932L15.6097 13.9864L29.2454 7.49321Z" fill="#CE9C6A"/>
<path d="M15.6097 13.9864V30.2194L1.97394 23.7262V7.4932M15.6097 13.9864L1.97394 7.4932M15.6097 13.9864L15.5679 30.2194L29.2036 23.7262L29.2454 7.49321M15.6097 13.9864L29.2454 7.49321M15.6097 13.9864L22.4275 10.7398M1.97394 7.4932L8.7918 4.2466M29.2454 7.49321L15.6097 1L8.7918 4.2466M29.2454 7.49321L22.4275 10.7398M8.7918 4.2466L22.4275 10.7398" stroke="black" stroke-width="2" stroke-miterlimit="8.20551" stroke-linecap="square" stroke-linejoin="round"/>
<path d="M29.1237 41.9071L16.3402 35.9275V21.4506L22.7583 24.4928L29.1237 35.9275V41.9071Z" fill="white"/>
<path d="M29.1237 41.9071L41.9072 35.9275V29.9479L29.1237 35.9275V41.9071Z" fill="white"/>
<path d="M35.5944 18.4083L29.1763 15.3661L16.3402 21.4506L22.7583 24.4928L35.5944 18.4083Z" fill="white"/>
<path d="M22.7583 24.4928L29.1237 35.9275L41.9072 29.9479L35.5944 18.4083L22.7583 24.4928Z" fill="white"/>
<path d="M29.1237 41.9071L16.3402 35.9275V21.4506M29.1237 41.9071V35.9275M29.1237 41.9071L41.9072 35.9275V29.9479M16.3402 21.4506L22.7583 24.4928M16.3402 21.4506L29.1763 15.3661L35.5944 18.4083M22.7583 24.4928L29.1237 35.9275M22.7583 24.4928L35.5944 18.4083M29.1237 35.9275L41.9072 29.9479M41.9072 29.9479L35.5944 18.4083" stroke="black" stroke-width="2" stroke-miterlimit="8.20551" stroke-linecap="square" stroke-linejoin="round"/>
<path d="M8.92502 36.3122C8.77593 38.4443 7.21867 39.2038 5.44678 38.0086C3.67489 36.8135 2.35934 34.1162 2.50843 31.9841C2.65752 29.852 4.21479 29.0925 5.98668 30.2877C7.75857 31.4828 9.07411 34.1801 8.92502 36.3122Z" fill="white" stroke="black" stroke-width="2"/>
<path d="M3.10221 28.7874C3.95687 28.3706 5.02328 28.5932 6.05652 29.2902L8.24504 28.2227C7.2118 27.5258 6.14539 27.3032 5.29073 27.72L3.10221 28.7874Z" fill="black"/>
<path d="M9.75415 36.8714C9.94176 34.1884 8.28628 30.7941 6.05652 29.2902L8.24504 28.2227C10.4748 29.7267 12.1303 33.121 11.9427 35.804L9.75415 36.8714Z" fill="black"/>
<path d="M8.33143 39.5089C9.1861 39.0921 9.66721 38.1147 9.75415 36.8714L11.9427 35.804C11.8557 37.0473 11.3746 38.0247 10.5199 38.4415L8.33143 39.5089Z" fill="black"/>
<path d="M23.2913 43.3737C23.1422 45.5058 21.5849 46.2653 19.813 45.0701C18.0412 43.875 16.7256 41.1777 16.8747 39.0456C17.0238 36.9136 18.5811 36.154 20.353 37.3492C22.1248 38.5444 23.4404 41.2416 23.2913 43.3737Z" fill="white" stroke="black" stroke-width="2"/>
<path d="M17.4684 35.8488C18.3231 35.432 19.3895 35.6546 20.4227 36.3516L22.6113 35.2841C21.578 34.5872 20.5116 34.3646 19.6569 34.7814L17.4684 35.8488Z" fill="black"/>
<path d="M24.1204 43.9328C24.308 41.2498 22.6525 37.8555 20.4227 36.3516L22.6113 35.2841C24.841 36.7881 26.4965 40.1824 26.3089 42.8654L24.1204 43.9328Z" fill="black"/>
<path d="M22.6976 46.5703C23.5523 46.1535 24.0334 45.1761 24.1204 43.9328L26.3089 42.8654C26.2219 44.1087 25.7408 45.0861 24.8862 45.5029L22.6976 46.5703Z" fill="black"/>
</svg>
