<svg width="60" height="35" viewBox="0 0 60 35" fill="none" xmlns="http://www.w3.org/2000/svg">
<g filter="url(#filter0_d_463_111)">
<path d="M21.6985 28.8376C22.1324 31.161 24.1573 32.9188 26.5898 32.9188C29.0222 32.9188 31.0471 31.161 31.4811 28.8376C31.5375 28.5353 31.5671 28.2235 31.5671 27.9047C31.5671 25.1355 29.3387 22.8907 26.5898 22.8907C23.8409 22.8907 21.6125 25.1355 21.6125 27.9047C21.6125 28.2235 21.642 28.5353 21.6985 28.8376Z" fill="white"/>
<path d="M48.3509 22.8907C45.6021 22.8907 43.3737 25.1355 43.3737 27.9047C43.3737 28.2235 43.4032 28.5353 43.4596 28.8376C43.8936 31.161 45.9185 32.9188 48.3509 32.9188C50.7834 32.9188 52.8083 31.161 53.2423 28.8376C53.2987 28.5353 53.3282 28.2235 53.3282 27.9047C53.3282 25.1355 51.0998 22.8907 48.3509 22.8907Z" fill="white"/>
<path fill-rule="evenodd" clip-rule="evenodd" d="M43.3737 27.9047C43.3737 25.1355 45.6021 22.8907 48.3509 22.8907C51.0998 22.8907 53.3282 25.1355 53.3282 27.9047C53.3282 28.2235 53.2987 28.5353 53.2423 28.8376H56.9243C57.5091 28.8376 58.0668 28.589 58.4602 28.1531C58.8076 27.7682 59 27.2667 59 26.7465V18.5942C59 18.2014 58.8906 17.8166 58.6843 17.4833L52.3195 7.20414C51.939 6.58955 51.2708 6.21606 50.5517 6.21606H41.372C40.2814 6.21606 39.3754 7.06322 39.2942 8.15877L38.4245 19.8985C38.3434 20.9941 37.4373 21.8412 36.3468 21.8412H18.7187C17.568 21.8412 16.6352 22.7809 16.6352 23.9401V26.4791C16.6352 26.9494 16.792 27.4061 17.0804 27.7759L17.2828 28.0354C17.6778 28.5418 18.2818 28.8376 18.9211 28.8376H21.6985C21.642 28.5353 21.6125 28.2235 21.6125 27.9047C21.6125 25.1355 23.8409 22.8907 26.5898 22.8907C29.3387 22.8907 31.5671 25.1355 31.5671 27.9047C31.5671 28.2235 31.5375 28.5353 31.4811 28.8376H43.4596C43.4032 28.5353 43.3737 28.2235 43.3737 27.9047ZM44.1498 15.1131L44.1035 12.3145C44.0841 11.1418 45.0224 10.1807 46.1867 10.1807H48.6927C49.4156 10.1807 50.0867 10.5581 50.4662 11.1779L52.1793 13.9764C53.0353 15.3748 52.0367 17.177 50.4058 17.177H46.233C45.0958 17.177 44.1687 16.2585 44.1498 15.1131Z" fill="white"/>
<path d="M21.6985 28.8376H18.9211C18.2818 28.8376 17.6778 28.5418 17.2828 28.0354L17.0804 27.7759C16.792 27.4061 16.6352 26.9494 16.6352 26.4791V23.9401C16.6352 22.7809 17.568 21.8412 18.7187 21.8412H36.3468C37.4373 21.8412 38.3434 20.9941 38.4245 19.8985L39.2942 8.15877C39.3754 7.06322 40.2814 6.21606 41.372 6.21606H50.5517C51.2708 6.21606 51.939 6.58955 52.3195 7.20414L58.6843 17.4833C58.8906 17.8166 59 18.2014 59 18.5942V26.7465C59 27.2667 58.8076 27.7682 58.4602 28.1531C58.0668 28.589 57.5091 28.8376 56.9243 28.8376H53.2423M21.6985 28.8376C22.1324 31.161 24.1573 32.9188 26.5898 32.9188C29.0222 32.9188 31.0471 31.161 31.4811 28.8376M21.6985 28.8376C21.642 28.5353 21.6125 28.2235 21.6125 27.9047C21.6125 25.1355 23.8409 22.8907 26.5898 22.8907C29.3387 22.8907 31.5671 25.1355 31.5671 27.9047C31.5671 28.2235 31.5375 28.5353 31.4811 28.8376M31.4811 28.8376H43.4596M43.4596 28.8376C43.8936 31.161 45.9185 32.9188 48.3509 32.9188C50.7834 32.9188 52.8083 31.161 53.2423 28.8376M43.4596 28.8376C43.4032 28.5353 43.3737 28.2235 43.3737 27.9047C43.3737 25.1355 45.6021 22.8907 48.3509 22.8907C51.0998 22.8907 53.3282 25.1355 53.3282 27.9047C53.3282 28.2235 53.2987 28.5353 53.2423 28.8376M44.1035 12.3145L44.1498 15.1131C44.1687 16.2585 45.0958 17.177 46.233 17.177H50.4058C52.0367 17.177 53.0353 15.3748 52.1793 13.9764L50.4662 11.1779C50.0867 10.5581 49.4156 10.1807 48.6927 10.1807H46.1867C45.0224 10.1807 44.0841 11.1418 44.1035 12.3145Z" stroke="black" stroke-linejoin="round"/>
<path fill-rule="evenodd" clip-rule="evenodd" d="M24.9947 6.7297L25.4432 1.08105L18.874 1.08107C17.6495 1.08107 16.731 2.19944 16.9712 3.39814C17.2113 4.59684 16.2929 5.71521 15.0683 5.71521H3.50872C2.67548 5.71521 2 6.38951 2 7.22131C2 8.0531 2.67548 8.72741 3.50872 8.72741H28.9249C29.3095 8.72741 29.6212 9.03862 29.6212 9.42253C29.6212 9.80643 29.3095 10.1176 28.9249 10.1176H14.8241C14.0229 10.1176 13.3735 10.766 13.3735 11.5658C13.3735 12.3656 14.0229 13.014 14.8241 13.014H24.6308C25.0795 13.014 25.4432 13.3771 25.4432 13.825C25.4432 14.2729 25.0795 14.6359 24.6308 14.6359H9.3115C8.47826 14.6359 7.80278 15.3102 7.80278 16.142C7.80278 16.9738 8.47826 17.6481 9.3115 17.6481H15.0075C15.6426 17.6481 16.1012 18.255 15.9267 18.8646C15.7522 19.4742 16.2107 20.081 16.8459 20.081H34.4225C35.5122 20.081 36.4189 19.2449 36.505 18.1605L37.6825 3.33122C37.7788 2.11835 36.8188 1.08107 35.6 1.08107L29.6647 1.08105L29.2162 6.7297H24.9947Z" fill="url(#paint0_linear_463_111)"/>
<path d="M35.6 1.08107C36.8188 1.08107 37.7788 2.11835 37.6825 3.33122L36.505 18.1605C36.4189 19.2449 35.5122 20.081 34.4225 20.081H16.8459C16.2107 20.081 15.7522 19.4742 15.9267 18.8646C16.1012 18.255 15.6426 17.6481 15.0075 17.6481H9.3115C8.47826 17.6481 7.80278 16.9738 7.80278 16.142C7.80278 15.3102 8.47826 14.6359 9.3115 14.6359H24.6308C25.0795 14.6359 25.4432 14.2729 25.4432 13.825C25.4432 13.3771 25.0795 13.014 24.6308 13.014H14.8241C14.0229 13.014 13.3734 12.3656 13.3734 11.5658C13.3734 10.766 14.0229 10.1176 14.8241 10.1176H28.9249C29.3095 10.1176 29.6212 9.80643 29.6212 9.42253C29.6212 9.03862 29.3095 8.72741 28.9249 8.72741H3.50872C2.67548 8.72741 2 8.0531 2 7.22131C2 6.38951 2.67548 5.71521 3.50872 5.71521H15.0683C16.2929 5.71521 17.2113 4.59684 16.9712 3.39814C16.731 2.19944 17.6495 1.08107 18.874 1.08107M35.6 1.08107H27.237M35.6 1.08107L29.6647 1.08105M18.874 1.08107H27.237M18.874 1.08107L25.4432 1.08105M27.237 1.08107L29.6647 1.08105M27.237 1.08107L25.4432 1.08105M25.4432 1.08105L24.9947 6.7297H29.2162L29.6647 1.08105" stroke="black" stroke-linejoin="round"/>
<path d="M25.1081 6.7297L25.5566 1.08105H29.7781L29.3296 6.7297H25.1081Z" fill="#B7B7B7" stroke="black" stroke-linejoin="round"/>
</g>
<defs>
<filter id="filter0_d_463_111" x="0.5" y="0.581055" width="59.0001" height="33.8376" filterUnits="userSpaceOnUse" color-interpolation-filters="sRGB">
<feFlood flood-opacity="0" result="BackgroundImageFix"/>
<feColorMatrix in="SourceAlpha" type="matrix" values="0 0 0 0 0 0 0 0 0 0 0 0 0 0 0 0 0 0 127 0" result="hardAlpha"/>
<feOffset dx="-1" dy="1"/>
<feComposite in2="hardAlpha" operator="out"/>
<feColorMatrix type="matrix" values="0 0 0 0 0 0 0 0 0 0 0 0 0 0 0 0 0 0 0.25 0"/>
<feBlend mode="normal" in2="BackgroundImageFix" result="effect1_dropShadow_463_111"/>
<feBlend mode="normal" in="SourceGraphic" in2="effect1_dropShadow_463_111" result="shape"/>
</filter>
<linearGradient id="paint0_linear_463_111" x1="20.0812" y1="1.62637" x2="19.8468" y2="20.0811" gradientUnits="userSpaceOnUse">
<stop stop-color="#CE9C6A"/>
<stop offset="1" stop-color="#764F28"/>
</linearGradient>
</defs>
</svg>
