<svg width="28" height="28" viewBox="0 0 44 44" fill="none" xmlns="http://www.w3.org/2000/svg">
<g clip-path="url(#clip0_372_1479)">
<circle cx="22" cy="22" r="22" fill="#7F4DA0"/>
<path d="M31.7361 12.0298C31.0784 11.4194 28.4169 9.47345 22.4829 9.44737C22.4829 9.44737 15.4874 9.02479 12.0803 12.1758C10.1851 14.0853 9.51714 16.8868 9.44465 20.3561C9.37215 23.8254 9.28413 30.3257 15.5029 32.0891H15.5081L15.5029 34.781C15.5029 34.781 15.4615 35.8714 16.1761 36.0905C17.0356 36.3618 17.5431 35.5323 18.3664 34.6402C18.8169 34.1498 19.4382 33.4298 19.9094 32.882C24.1658 33.242 27.4331 32.4177 27.8059 32.2977C28.6655 32.016 33.5276 31.39 34.3147 24.8896C35.1328 18.1806 33.9212 13.9444 31.7361 12.0298ZM32.4558 24.3992C31.7878 29.8249 27.8474 30.1692 27.1224 30.404C26.8117 30.5031 23.9379 31.223 20.3289 30.9883C20.3289 30.9883 17.6363 34.2593 16.7974 35.1097C16.523 35.3862 16.2227 35.3601 16.2279 34.8123C16.2279 34.4523 16.2486 30.3414 16.2486 30.3414C16.2434 30.3414 16.2434 30.3414 16.2486 30.3414C10.9773 28.8702 11.288 23.335 11.345 20.4395C11.4019 17.5441 11.9456 15.1704 13.5508 13.574C16.435 10.9394 22.3742 11.3307 22.3742 11.3307C27.3917 11.3516 29.7943 12.8749 30.3535 13.3862C32.2021 14.9826 33.1445 18.8014 32.4558 24.3992ZM25.2583 20.1839C25.2791 20.6326 24.6111 20.6639 24.5904 20.2152C24.5334 19.0675 24.0001 18.5093 22.9023 18.4467C22.457 18.4206 22.4985 17.7476 22.9386 17.7737C24.3833 17.8519 25.1858 18.6866 25.2583 20.1839ZM26.3095 20.7734C26.3613 18.5614 24.9891 16.8294 22.3845 16.6364C21.9444 16.6051 21.991 15.9321 22.4311 15.9634C25.4344 16.1825 27.0344 18.2641 26.9774 20.7891C26.9723 21.2377 26.2991 21.2169 26.3095 20.7734ZM28.7432 21.4725C28.7483 21.9212 28.0752 21.9264 28.0752 21.4777C28.0441 17.2259 25.2324 14.9095 21.8201 14.8835C21.38 14.8782 21.38 14.2105 21.8201 14.2105C25.6363 14.2366 28.7069 16.892 28.7432 21.4725ZM28.158 26.5904V26.6008C27.5988 27.592 26.5528 28.6876 25.4758 28.338L25.4655 28.3224C24.3729 28.0146 21.7994 26.679 20.1735 25.3748C19.3347 24.707 18.5683 23.9193 17.978 23.1628C17.4447 22.4898 16.9062 21.6916 16.3832 20.7317C15.2803 18.7232 15.0369 17.8258 15.0369 17.8258C14.69 16.7407 15.7722 15.6869 16.7612 15.1234H16.7716C17.2479 14.873 17.7036 14.9565 18.0091 15.3269C18.0091 15.3269 18.6512 16.099 18.9256 16.4799C19.1845 16.8346 19.5314 17.4033 19.7127 17.7215C20.0285 18.2901 19.8318 18.8692 19.5211 19.1092L18.8997 19.61C18.5839 19.8657 18.6253 20.3404 18.6253 20.3404C18.6253 20.3404 19.547 23.8514 22.9904 24.7383C22.9904 24.7383 23.4616 24.7801 23.7153 24.4618L24.2124 23.8358C24.4506 23.5228 25.0253 23.3245 25.5897 23.6428C26.3509 24.0758 27.3192 24.7488 27.9613 25.3592C28.3237 25.6565 28.4066 26.1104 28.158 26.5904Z" fill="white"/>
</g>
<defs>
<clipPath id="clip0_372_1479">
<rect width="44" height="44" fill="white"/>
</clipPath>
</defs>
</svg>
