<svg width="47" height="34" viewBox="0 0 47 34" fill="none" xmlns="http://www.w3.org/2000/svg">
<path d="M30.6051 28.3355V5.38242C30.6051 4.48534 30.2487 3.62501 29.6144 2.99069C28.9801 2.35636 28.1198 2 27.2227 2H5.38242C4.48534 2 3.62501 2.35636 2.99069 2.99069C2.35636 3.62501 2 4.48534 2 5.38242V27.7943C2 28.6914 2.35636 29.5517 2.99069 30.186C3.62501 30.8204 4.48534 31.1767 5.38242 31.1767H7.91923M44.6049 18.009H30.6085M40.0522 30.5442H41.2191C42.1162 30.5442 42.9765 30.1879 43.6109 29.5535C44.2452 28.9192 44.6015 28.0589 44.6015 27.1618V17.0145L39.8898 7.36451C39.6114 6.79628 39.1792 6.31753 38.6422 5.9827C38.1053 5.64786 37.4852 5.47036 36.8524 5.47036H31.2139" stroke="white" stroke-width="4" stroke-linecap="round" stroke-linejoin="round"/>
<path d="M28.6366 31.1765H18.7024M8.08838 31.278C8.08838 32.5303 8.58586 33.7313 9.47138 34.6169C10.3569 35.5024 11.5579 35.9999 12.8102 35.9999C14.0625 35.9999 15.2636 35.5024 16.1491 34.6169C17.0346 33.7313 17.5321 32.5303 17.5321 31.278C17.5321 30.0257 17.0346 28.8247 16.1491 27.9391C15.2636 27.0536 14.0625 26.5562 12.8102 26.5562C11.5579 26.5562 10.3569 27.0536 9.47138 27.9391C8.58586 28.8247 8.08838 30.0257 8.08838 31.278ZM29.5228 31.278C29.5228 31.8981 29.6449 32.5121 29.8822 33.085C30.1195 33.6579 30.4673 34.1784 30.9058 34.6169C31.3442 35.0553 31.8648 35.4031 32.4376 35.6404C33.0105 35.8777 33.6245 35.9999 34.2446 35.9999C34.8647 35.9999 35.4787 35.8777 36.0516 35.6404C36.6245 35.4031 37.145 35.0553 37.5835 34.6169C38.0219 34.1784 38.3697 33.6579 38.607 33.085C38.8443 32.5121 38.9665 31.8981 38.9665 31.278C38.9665 30.6579 38.8443 30.0439 38.607 29.471C38.3697 28.8981 38.0219 28.3776 37.5835 27.9391C37.145 27.5007 36.6245 27.1529 36.0516 26.9156C35.4787 26.6783 34.8647 26.5562 34.2446 26.5562C33.6245 26.5562 33.0105 26.6783 32.4376 26.9156C31.8648 27.1529 31.3442 27.5007 30.9058 27.9391C30.4673 28.3776 30.1195 28.8981 29.8822 29.471C29.6449 30.0439 29.5228 30.6579 29.5228 31.278Z" stroke="white" stroke-width="4" stroke-linecap="round" stroke-linejoin="round"/>
</svg>
