<svg width="57" height="47" viewBox="0 0 57 47" fill="none" xmlns="http://www.w3.org/2000/svg">
<g filter="url(#filter0_d_463_146)">
<path d="M30.95 3.65625H13.8C13.0344 3.70703 12.626 4.11328 12.575 4.875V7.3125H22.375C23.1406 7.36328 23.549 7.76953 23.6 8.53125C23.549 9.29297 23.1406 9.69922 22.375 9.75H5.225C4.45938 9.69922 4.05104 9.29297 4 8.53125C4.05104 7.76953 4.45938 7.36328 5.225 7.3125H8.9V4.875C8.95104 3.50391 9.43594 2.36133 10.3547 1.44727C11.2734 0.533203 12.4219 0.0507812 13.8 0H30.95C32.3281 0.0507812 33.4766 0.533203 34.3953 1.44727C35.3141 2.36133 35.799 3.50391 35.85 4.875V7.3125H39.1422C40.3161 7.3125 41.3115 7.71875 42.1281 8.53125L49.325 15.6914C50.1417 16.5039 50.55 17.4941 50.55 18.6621V28.0312H51.1625C52.2854 28.1328 52.8979 28.7422 53 29.8594C52.8979 30.9766 52.2854 31.5859 51.1625 31.6875H48.1C48.049 33.7695 47.3344 35.4961 45.9562 36.8672C44.5781 38.2383 42.8427 38.9492 40.75 39C38.6573 38.9492 36.9219 38.2383 35.5438 36.8672C34.1656 35.4961 33.451 33.7695 33.4 31.6875H23.6C23.549 33.7695 22.8344 35.4961 21.4563 36.8672C20.0781 38.2383 18.3427 38.9492 16.25 39C14.1573 38.9492 12.4219 38.2383 11.0438 36.8672C9.66563 35.4961 8.95104 33.7695 8.9 31.6875V21.9375H12.575V25.3652C13.6469 24.7051 14.8719 24.375 16.25 24.375C17.6281 24.375 18.8786 24.7051 20.0016 25.3652C21.0734 26.0254 21.9411 26.9141 22.6047 28.0312H30.95C31.7156 27.9805 32.124 27.5742 32.175 26.8125V4.875C32.124 4.11328 31.7156 3.70703 30.95 3.65625ZM39.525 11.1211C39.4229 11.0195 39.2953 10.9688 39.1422 10.9688H35.85V18.2812H46.7219L39.525 11.1211ZM16.25 28.0312C15.2292 28.082 14.3615 28.4375 13.6469 29.0977C12.9833 29.8086 12.626 30.6719 12.575 31.6875C12.626 32.7031 12.9833 33.5664 13.6469 34.2773C14.3615 34.9375 15.2292 35.293 16.25 35.3438C17.2708 35.293 18.1385 34.9375 18.8531 34.2773C19.5167 33.5664 19.874 32.7031 19.925 31.6875C19.874 30.6719 19.5167 29.8086 18.8531 29.0977C18.1385 28.4375 17.2708 28.082 16.25 28.0312ZM40.75 35.3438C41.7708 35.293 42.6385 34.9375 43.3531 34.2773C44.0167 33.5664 44.374 32.7031 44.425 31.6875C44.374 30.6719 44.0167 29.8086 43.3531 29.0977C42.6385 28.4375 41.7708 28.082 40.75 28.0312C39.7292 28.082 38.8615 28.4375 38.1469 29.0977C37.4833 29.8086 37.126 30.6719 37.075 31.6875C37.126 32.7031 37.4833 33.5664 38.1469 34.2773C38.8615 34.9375 39.7292 35.293 40.75 35.3438ZM24.825 12.1875C25.5906 12.2383 25.999 12.6445 26.05 13.4062C25.999 14.168 25.5906 14.5742 24.825 14.625H7.675C6.90937 14.5742 6.50104 14.168 6.45 13.4062C6.50104 12.6445 6.90937 12.2383 7.675 12.1875H24.825ZM22.375 17.0625C23.1406 17.1133 23.549 17.5195 23.6 18.2812C23.549 19.043 23.1406 19.4492 22.375 19.5H5.225C4.45938 19.4492 4.05104 19.043 4 18.2812C4.05104 17.5195 4.45938 17.1133 5.225 17.0625H22.375Z" fill="white"/>
</g>
<defs>
<filter id="filter0_d_463_146" x="0" y="0" width="57" height="47" filterUnits="userSpaceOnUse" color-interpolation-filters="sRGB">
<feFlood flood-opacity="0" result="BackgroundImageFix"/>
<feColorMatrix in="SourceAlpha" type="matrix" values="0 0 0 0 0 0 0 0 0 0 0 0 0 0 0 0 0 0 127 0" result="hardAlpha"/>
<feOffset dy="4"/>
<feGaussianBlur stdDeviation="2"/>
<feComposite in2="hardAlpha" operator="out"/>
<feColorMatrix type="matrix" values="0 0 0 0 0 0 0 0 0 0 0 0 0 0 0 0 0 0 0.25 0"/>
<feBlend mode="normal" in2="BackgroundImageFix" result="effect1_dropShadow_463_146"/>
<feBlend mode="normal" in="SourceGraphic" in2="effect1_dropShadow_463_146" result="shape"/>
</filter>
</defs>
</svg>
