<svg width="52" height="52" viewBox="0 0 52 52" fill="none" xmlns="http://www.w3.org/2000/svg">
<path d="M16.25 16.25V11.375C16.25 10.0821 16.7636 8.84209 17.6779 7.92785C18.5921 7.01361 19.8321 6.5 21.125 6.5H30.875C32.1679 6.5 33.4079 7.01361 34.3221 7.92785C35.2364 8.84209 35.75 10.0821 35.75 11.375V16.25H39C40.7239 16.25 42.3772 16.9348 43.5962 18.1538C44.8152 19.3728 45.5 21.0261 45.5 22.75V39C45.5 40.7239 44.8152 42.3772 43.5962 43.5962C42.3772 44.8152 40.7239 45.5 39 45.5H13C11.2761 45.5 9.62279 44.8152 8.40381 43.5962C7.18482 42.3772 6.5 40.7239 6.5 39V22.75C6.5 21.0261 7.18482 19.3728 8.40381 18.1538C9.62279 16.9348 11.2761 16.25 13 16.25H16.25ZM19.5 11.375V16.25H32.5V11.375C32.5 10.944 32.3288 10.5307 32.024 10.226C31.7193 9.92121 31.306 9.75 30.875 9.75H21.125C20.694 9.75 20.2807 9.92121 19.976 10.226C19.6712 10.5307 19.5 10.944 19.5 11.375ZM9.75 30.875V39C9.75 39.862 10.0924 40.6886 10.7019 41.2981C11.3114 41.9076 12.138 42.25 13 42.25H39C39.862 42.25 40.6886 41.9076 41.2981 41.2981C41.9076 40.6886 42.25 39.862 42.25 39V30.875C40.8915 31.8955 39.2048 32.5 37.375 32.5H29.25V34.125C29.25 34.556 29.0788 34.9693 28.774 35.274C28.4693 35.5788 28.056 35.75 27.625 35.75H24.375C23.944 35.75 23.5307 35.5788 23.226 35.274C22.9212 34.9693 22.75 34.556 22.75 34.125V32.5H14.625C12.867 32.5 11.1564 31.9298 9.75 30.875ZM22.75 29.25V27.625C22.75 27.194 22.9212 26.7807 23.226 26.476C23.5307 26.1712 23.944 26 24.375 26H27.625C28.056 26 28.4693 26.1712 28.774 26.476C29.0788 26.7807 29.25 27.194 29.25 27.625V29.25H37.375C38.6679 29.25 39.9079 28.7364 40.8221 27.8221C41.7364 26.9079 42.25 25.6679 42.25 24.375V22.75C42.25 21.888 41.9076 21.0614 41.2981 20.4519C40.6886 19.8424 39.862 19.5 39 19.5H13C12.138 19.5 11.3114 19.8424 10.7019 20.4519C10.0924 21.0614 9.75 21.888 9.75 22.75V24.375C9.75 25.6679 10.2636 26.9079 11.1779 27.8221C12.0921 28.7364 13.3321 29.25 14.625 29.25H22.75Z" fill="white"/>
</svg>
